<svg version="1.1" xmlns="http://www.w3.org/2000/svg" viewBox="0 0 2513.3331298828125 3346.6665649414062" width="2513.3331298828125" height="3346.6665649414062">
  <!-- svg-source:excalidraw -->
  
  <defs>
    <style class="style-fonts">
      @font-face {
        font-family: "Virgil";
        src: url("https://excalidraw.com/Virgil.woff2");
      }
      @font-face {
        font-family: "Cascadia";
        src: url("https://excalidraw.com/Cascadia.woff2");
      }
    </style>
  </defs>
  <rect x="0" y="0" width="2513.3331298828125" height="3346.6665649414062" fill="#ffffff"></rect><g stroke-linecap="round" transform="translate(10 10) rotate(0 1246.6665649414062 1663.3332824707031)"><path d="M32 0 M32 0 C526.73 2.55, 1023.45 2.68, 2461.33 0 M32 0 C795.87 0.25, 1558.85 0.04, 2461.33 0 M2461.33 0 C2482.34 1.54, 2494.23 12.63, 2493.33 32 M2461.33 0 C2483.18 0.17, 2491.8 12.71, 2493.33 32 M2493.33 32 C2485.7 1165.99, 2485.19 2300.85, 2493.33 3294.67 M2493.33 32 C2497.27 910.99, 2497.71 1790.01, 2493.33 3294.67 M2493.33 3294.67 C2491.9 3316.31, 2484.37 3328.21, 2461.33 3326.67 M2493.33 3294.67 C2494.11 3317.68, 2480.39 3328.93, 2461.33 3326.67 M2461.33 3326.67 C1799.26 3327.51, 1138.21 3327.24, 32 3326.67 M2461.33 3326.67 C1802.69 3333.72, 1143.6 3333.49, 32 3326.67 M32 3326.67 C10.13 3325.23, -0.08 3315.92, 0 3294.67 M32 3326.67 C9.09 3327.56, -0.37 3318.23, 0 3294.67 M0 3294.67 C10.82 2239.27, 11.27 1184.44, 0 32 M0 3294.67 C4.04 2275.88, 4.15 1257.28, 0 32 M0 32 C-1.99 11.95, 9.34 1.55, 32 0 M0 32 C-2.27 9.44, 11.91 -0.3, 32 0" stroke="#000000" stroke-width="1" fill="none"></path></g><g stroke-linecap="round" transform="translate(730 590) rotate(0 626.6665649414062 803.3332824707031)"><path d="M783.75 201 M783.75 201 C884.29 326.33, 982.01 452.58, 1096.58 603 M783.75 201 C854.39 293.06, 926.13 385.17, 1096.58 603 M1096.58 603 C1254.27 800.45, 1249.46 800.16, 1096.58 1005 M1096.58 603 C1252.36 802.2, 1254.63 804.56, 1096.58 1005 M1096.58 1005 C1011.93 1111.91, 927.63 1217.77, 783.75 1405.67 M1096.58 1005 C979.76 1152.4, 867.08 1298.61, 783.75 1405.67 M783.75 1405.67 C627.59 1606.99, 630.84 1610.49, 470.25 1405.67 M783.75 1405.67 C627.9 1606.28, 628.56 1610.17, 470.25 1405.67 M470.25 1405.67 C367.22 1272.44, 262.9 1141.26, 156.75 1005 M470.25 1405.67 C376.78 1287.42, 286.5 1172.22, 156.75 1005 M156.75 1005 C1.37 807.81, 3.8 803.71, 156.75 603 M156.75 1005 C3.48 806.35, 3.02 805.47, 156.75 603 M156.75 603 C225.48 521.67, 289.74 437.63, 470.25 201 M156.75 603 C275.65 452.62, 394.53 298.74, 470.25 201 M470.25 201 C629.04 -1.76, 623.17 3.57, 783.75 201 M470.25 201 C629.02 -0.55, 625.56 -3.35, 783.75 201" stroke="#e03131" stroke-width="1" fill="none"></path></g><g transform="translate(1210 1263.3334350585938) rotate(0 10 190)" stroke="none"><path fill="#e03131" d="M 1.56,0 Q 1.56,0 1.52,7.66 1.49,15.33 1.46,35.84 1.44,56.34 7.17,105.23 12.89,154.11 15.33,197.97 17.76,241.82 18.79,273.87 19.82,305.93 20.26,325.30 20.69,344.67 20.87,354.82 21.06,364.97 21.13,367.37 21.21,369.76 21.19,369.92 21.18,370.08 21.12,370.23 21.07,370.38 20.98,370.52 20.89,370.65 20.77,370.76 20.65,370.87 20.51,370.95 20.37,371.02 20.22,371.06 20.06,371.11 19.90,371.11 19.74,371.11 19.58,371.08 19.43,371.04 19.28,370.97 19.14,370.90 19.02,370.79 18.90,370.69 18.80,370.56 18.71,370.43 18.65,370.28 18.59,370.13 18.57,369.97 18.54,369.81 18.58,366.98 18.61,364.14 18.63,362.06 18.65,359.98 18.68,359.76 18.72,359.55 18.83,359.36 18.93,359.17 19.09,359.02 19.25,358.87 19.45,358.78 19.65,358.69 19.87,358.67 20.08,358.65 20.30,358.70 20.51,358.75 20.69,358.86 20.88,358.98 21.02,359.15 21.16,359.31 21.24,359.52 21.32,359.72 21.32,359.94 21.33,360.16 21.27,360.37 21.21,360.58 21.09,360.76 20.96,360.93 20.79,361.06 20.61,361.19 20.40,361.26 20.20,361.33 19.98,361.33 19.76,361.32 19.55,361.25 19.35,361.18 19.18,361.04 19.00,360.91 18.88,360.73 18.76,360.55 18.71,360.34 18.65,360.12 18.67,359.91 18.68,359.69 18.76,359.49 18.85,359.29 18.99,359.12 19.13,358.96 19.32,358.85 19.51,358.74 19.72,358.69 19.94,358.65 20.16,358.67 20.37,358.70 20.57,358.79 20.77,358.89 20.92,359.04 21.08,359.19 21.18,359.39 21.28,359.58 21.31,359.80 21.34,360.01 21.34,360.01 21.34,360.01 21.31,362.09 21.28,364.17 21.24,366.97 21.21,369.76 21.19,369.92 21.18,370.08 21.12,370.23 21.07,370.38 20.98,370.52 20.89,370.65 20.77,370.76 20.65,370.87 20.51,370.95 20.37,371.02 20.22,371.06 20.06,371.11 19.90,371.11 19.74,371.11 19.58,371.08 19.43,371.04 19.28,370.97 19.14,370.90 19.02,370.79 18.90,370.69 18.80,370.56 18.71,370.43 18.65,370.28 18.59,370.13 18.57,369.97 18.54,369.81 18.46,367.42 18.38,365.02 18.19,354.88 17.99,344.73 17.54,325.37 17.10,306.01 16.05,273.99 15.00,241.98 12.55,198.21 10.10,154.44 4.32,105.39 -1.44,56.35 -1.46,35.84 -1.49,15.33 -1.52,7.66 -1.56,0 -1.53,-0.18 -1.51,-0.37 -1.45,-0.54 -1.38,-0.72 -1.27,-0.88 -1.16,-1.03 -1.02,-1.16 -0.88,-1.28 -0.72,-1.37 -0.55,-1.46 -0.37,-1.50 -0.18,-1.55 0.00,-1.55 0.18,-1.55 0.37,-1.50 0.55,-1.46 0.72,-1.37 0.88,-1.28 1.02,-1.16 1.16,-1.03 1.27,-0.88 1.38,-0.72 1.45,-0.54 1.51,-0.37 1.53,-0.18 1.56,0.00 1.56,0.00 L 1.56,0 Z"></path></g><g transform="translate(1383.3331298828125 1236.6665649414062) rotate(0 0 186.66671752929688)" stroke="none"><path fill="#e03131" d="M 1.56,0 Q 1.56,0 1.52,9.58 1.49,19.16 1.46,57.73 1.44,96.31 1.42,135.70 1.40,175.09 1.39,212.92 1.38,250.75 1.37,278.32 1.36,305.90 1.35,319.53 1.34,333.17 1.34,340.88 1.33,348.59 1.33,353.79 1.33,358.98 1.32,363.11 1.32,367.23 1.32,370.28 1.32,373.33 1.28,373.54 1.25,373.75 1.15,373.94 1.05,374.13 0.89,374.28 0.74,374.42 0.54,374.51 0.35,374.60 0.14,374.63 -0.07,374.65 -0.28,374.60 -0.48,374.56 -0.67,374.45 -0.85,374.34 -0.99,374.17 -1.13,374.01 -1.21,373.81 -1.29,373.61 -1.30,373.40 -1.31,373.19 -1.25,372.98 -1.20,372.77 -1.08,372.60 -0.96,372.42 -0.79,372.29 -0.61,372.16 -0.41,372.09 -0.21,372.02 0.00,372.02 0.21,372.02 0.41,372.09 0.62,372.16 0.79,372.29 0.96,372.42 1.08,372.60 1.20,372.77 1.25,372.98 1.31,373.19 1.30,373.40 1.29,373.61 1.21,373.81 1.13,374.01 0.99,374.17 0.85,374.34 0.67,374.45 0.48,374.56 0.28,374.60 0.07,374.65 -0.14,374.63 -0.35,374.60 -0.54,374.51 -0.74,374.42 -0.89,374.28 -1.05,374.13 -1.15,373.94 -1.25,373.75 -1.28,373.54 -1.32,373.33 -1.32,373.33 -1.32,373.33 -1.32,370.28 -1.32,367.23 -1.32,363.11 -1.33,358.98 -1.33,353.79 -1.33,348.59 -1.34,340.88 -1.34,333.17 -1.35,319.53 -1.36,305.90 -1.37,278.32 -1.38,250.75 -1.39,212.92 -1.40,175.09 -1.42,135.70 -1.44,96.31 -1.46,57.73 -1.49,19.16 -1.52,9.58 -1.56,0 -1.53,-0.18 -1.51,-0.37 -1.45,-0.54 -1.38,-0.72 -1.27,-0.88 -1.16,-1.03 -1.02,-1.16 -0.88,-1.28 -0.72,-1.37 -0.55,-1.46 -0.37,-1.50 -0.18,-1.55 0.00,-1.55 0.18,-1.55 0.37,-1.50 0.55,-1.46 0.72,-1.37 0.88,-1.28 1.02,-1.16 1.16,-1.03 1.27,-0.88 1.38,-0.72 1.45,-0.54 1.51,-0.37 1.53,-0.18 1.56,0.00 1.56,0.00 L 1.56,0 Z"></path></g><g transform="translate(1243.3331298828125 1490) rotate(0 16.6668701171875 -6.666717529296875)" stroke="none"><path fill="#e03131" d="M -1.24,-1.24 Q -1.24,-1.24 0.71,-3.11 2.67,-4.99 5.49,-7.72 8.31,-10.45 13.63,-11.75 18.94,-13.06 22.99,-13.53 27.03,-14.00 27.20,-14.02 27.38,-14.04 27.55,-14.01 27.72,-13.99 27.88,-13.93 28.04,-13.86 28.18,-13.76 28.33,-13.66 28.44,-13.53 28.55,-13.40 28.63,-13.25 28.71,-13.09 28.75,-12.92 28.79,-12.75 28.79,-12.58 28.78,-12.41 28.74,-12.24 28.70,-12.07 28.61,-11.92 28.53,-11.77 28.41,-11.64 28.30,-11.51 28.15,-11.41 28.01,-11.32 27.85,-11.26 27.68,-11.20 14.14,-4.94 0.60,1.30 0.37,1.36 0.15,1.43 -0.07,1.41 -0.31,1.40 -0.52,1.31 -0.74,1.23 -0.92,1.08 -1.09,0.92 -1.21,0.72 -1.33,0.53 -1.38,0.30 -1.43,0.07 -1.41,-0.15 -1.38,-0.38 -1.28,-0.59 -1.18,-0.80 -1.02,-0.97 -0.86,-1.14 -0.66,-1.25 -0.45,-1.36 -0.22,-1.40 0.00,-1.43 0.23,-1.40 0.46,-1.36 0.66,-1.25 0.87,-1.14 1.03,-0.97 1.19,-0.80 1.28,-0.59 1.38,-0.38 1.41,-0.15 1.43,0.08 1.38,0.30 1.33,0.53 1.21,0.73 1.09,0.93 0.91,1.08 0.73,1.23 0.52,1.31 0.30,1.40 0.07,1.41 -0.15,1.42 -0.38,1.36 -0.60,1.30 -0.79,1.17 -0.99,1.04 -1.13,0.85 -1.27,0.67 -1.34,0.45 -1.41,0.22 -1.41,-0.00 -1.41,-0.23 -1.34,-0.45 -1.26,-0.67 -1.12,-0.86 -0.98,-1.04 -0.79,-1.17 -0.60,-1.30 -0.60,-1.30 -0.60,-1.30 13.21,-7.65 27.03,-14.00 27.20,-14.02 27.38,-14.04 27.55,-14.01 27.72,-13.99 27.88,-13.93 28.04,-13.86 28.18,-13.76 28.33,-13.66 28.44,-13.53 28.55,-13.40 28.63,-13.25 28.71,-13.09 28.75,-12.92 28.79,-12.75 28.79,-12.58 28.78,-12.41 28.74,-12.24 28.70,-12.07 28.61,-11.92 28.53,-11.77 28.41,-11.64 28.30,-11.51 28.15,-11.41 28.01,-11.32 27.85,-11.26 27.68,-11.20 23.65,-10.68 19.61,-10.17 14.94,-9.15 10.27,-8.13 7.63,-5.40 4.99,-2.67 3.11,-0.71 1.24,1.24 1.07,1.37 0.90,1.50 0.71,1.59 0.52,1.67 0.31,1.71 0.10,1.75 -0.10,1.74 -0.31,1.72 -0.51,1.66 -0.72,1.60 -0.90,1.49 -1.08,1.38 -1.23,1.23 -1.38,1.08 -1.49,0.90 -1.60,0.72 -1.66,0.51 -1.72,0.31 -1.74,0.10 -1.75,-0.10 -1.71,-0.31 -1.67,-0.52 -1.59,-0.71 -1.50,-0.90 -1.37,-1.07 -1.24,-1.24 -1.24,-1.24 L -1.24,-1.24 Z"></path></g><g transform="translate(1210 1450) rotate(0 20 -3.333282470703125)" stroke="none"><path fill="#e03131" d="M -0.44,-1.77 Q -0.44,-1.77 7.24,-3.62 14.92,-5.47 20.18,-6.25 25.43,-7.03 29.55,-7.33 33.68,-7.64 33.86,-7.65 34.04,-7.66 34.22,-7.62 34.40,-7.58 34.56,-7.50 34.73,-7.42 34.87,-7.31 35.01,-7.19 35.12,-7.05 35.22,-6.90 35.29,-6.73 35.37,-6.56 35.39,-6.38 35.42,-6.20 35.41,-6.02 35.39,-5.84 35.33,-5.67 35.27,-5.49 35.18,-5.34 35.08,-5.19 34.94,-5.06 34.81,-4.94 34.65,-4.85 34.50,-4.76 34.32,-4.71 34.15,-4.66 17.21,-1.58 0.27,1.48 0.02,1.49 -0.21,1.49 -0.45,1.42 -0.68,1.34 -0.88,1.20 -1.08,1.05 -1.22,0.85 -1.36,0.65 -1.43,0.42 -1.50,0.18 -1.49,-0.05 -1.48,-0.30 -1.39,-0.52 -1.30,-0.75 -1.15,-0.94 -0.99,-1.13 -0.79,-1.26 -0.58,-1.39 -0.34,-1.45 -0.10,-1.50 0.13,-1.48 0.37,-1.46 0.60,-1.36 0.82,-1.26 1.00,-1.10 1.18,-0.93 1.30,-0.72 1.42,-0.50 1.46,-0.26 1.51,-0.02 1.47,0.21 1.44,0.45 1.33,0.67 1.21,0.89 1.04,1.06 0.86,1.23 0.64,1.34 0.42,1.45 0.18,1.48 -0.05,1.51 -0.29,1.46 -0.53,1.41 -0.74,1.29 -0.95,1.16 -1.12,0.98 -1.28,0.80 -1.37,0.57 -1.47,0.34 -1.48,0.10 -1.50,-0.13 -1.44,-0.37 -1.38,-0.61 -1.24,-0.81 -1.11,-1.02 -0.92,-1.17 -0.73,-1.32 -0.50,-1.40 -0.26,-1.48 -0.26,-1.48 -0.27,-1.48 16.70,-4.56 33.68,-7.64 33.86,-7.65 34.04,-7.66 34.22,-7.62 34.40,-7.58 34.56,-7.50 34.73,-7.42 34.87,-7.31 35.01,-7.19 35.12,-7.05 35.22,-6.90 35.29,-6.73 35.37,-6.56 35.39,-6.38 35.42,-6.20 35.41,-6.02 35.39,-5.84 35.33,-5.67 35.27,-5.49 35.18,-5.34 35.08,-5.19 34.95,-5.06 34.81,-4.94 34.65,-4.85 34.50,-4.76 34.32,-4.71 34.15,-4.66 30.04,-4.27 25.92,-3.89 20.83,-3.04 15.74,-2.19 8.09,-0.21 0.44,1.77 0.22,1.80 0.00,1.82 -0.21,1.80 -0.43,1.77 -0.63,1.69 -0.84,1.62 -1.02,1.49 -1.20,1.37 -1.35,1.20 -1.50,1.04 -1.60,0.84 -1.70,0.65 -1.76,0.43 -1.81,0.22 -1.81,0.00 -1.81,-0.21 -1.76,-0.42 -1.71,-0.64 -1.60,-0.83 -1.50,-1.03 -1.36,-1.19 -1.21,-1.36 -1.03,-1.48 -0.85,-1.61 -0.64,-1.69 -0.44,-1.77 -0.44,-1.77 L -0.44,-1.77 Z"></path></g><g transform="translate(1250 1443.3334350585938) rotate(0 136.66656494140625 -10)" stroke="none"><path fill="#e03131" d="M 0,-1.69 Q 0,-1.69 9.58,-1.64 19.16,-1.59 59.62,-3.47 100.07,-5.34 130.66,-8.05 161.26,-10.75 187.68,-13.80 214.09,-16.86 231.10,-18.15 248.12,-19.45 260.67,-20.41 273.22,-21.36 273.44,-21.34 273.66,-21.32 273.87,-21.23 274.07,-21.15 274.24,-21.00 274.40,-20.85 274.51,-20.66 274.62,-20.46 274.66,-20.24 274.70,-20.03 274.67,-19.81 274.64,-19.59 274.54,-19.39 274.44,-19.19 274.28,-19.03 274.12,-18.88 273.92,-18.78 273.72,-18.68 273.50,-18.65 273.28,-18.63 273.07,-18.67 272.85,-18.71 272.66,-18.82 272.46,-18.93 272.32,-19.10 272.17,-19.26 272.08,-19.47 272.00,-19.67 271.98,-19.89 271.96,-20.11 272.02,-20.33 272.07,-20.54 272.19,-20.73 272.31,-20.91 272.49,-21.05 272.66,-21.19 272.87,-21.27 273.08,-21.34 273.30,-21.35 273.52,-21.35 273.73,-21.29 273.94,-21.22 274.12,-21.09 274.30,-20.96 274.43,-20.78 274.56,-20.60 274.62,-20.39 274.69,-20.17 274.68,-19.95 274.67,-19.73 274.60,-19.52 274.52,-19.32 274.38,-19.14 274.24,-18.97 274.05,-18.85 273.86,-18.73 273.65,-18.68 273.43,-18.63 273.43,-18.63 273.43,-18.63 260.88,-17.65 248.33,-16.67 231.37,-15.35 214.42,-14.03 187.97,-10.93 161.52,-7.83 130.87,-5.07 100.21,-2.31 59.69,-0.36 19.16,1.59 9.58,1.64 0,1.69 -0.20,1.67 -0.40,1.64 -0.59,1.57 -0.78,1.50 -0.95,1.38 -1.12,1.27 -1.26,1.11 -1.39,0.96 -1.49,0.78 -1.58,0.60 -1.63,0.40 -1.68,0.20 -1.68,-0.00 -1.68,-0.20 -1.63,-0.40 -1.58,-0.60 -1.49,-0.78 -1.39,-0.96 -1.26,-1.11 -1.12,-1.27 -0.95,-1.38 -0.78,-1.50 -0.59,-1.57 -0.40,-1.64 -0.20,-1.67 0.00,-1.69 0.00,-1.69 L 0,-1.69 Z"></path></g><g transform="translate(1383.3331298828125 1390) rotate(0 0.00004999999998744897 0.00004999999998744897)" stroke="none"><path fill="#e03131" d="M 1.57,-1.57 Q 1.57,-1.57 1.77,-1.27 1.98,-0.98 2.09,-0.64 2.20,-0.29 2.19,0.05 2.18,0.41 2.05,0.75 1.93,1.09 1.70,1.37 1.48,1.65 1.18,1.84 0.87,2.04 0.52,2.12 0.18,2.21 -0.17,2.18 -0.53,2.15 -0.86,2.01 -1.19,1.87 -1.46,1.63 -1.73,1.39 -1.90,1.07 -2.08,0.76 -2.15,0.41 -2.21,0.05 -2.17,-0.29 -2.12,-0.65 -1.96,-0.97 -1.80,-1.29 -1.54,-1.54 -1.29,-1.80 -0.97,-1.96 -0.65,-2.12 -0.29,-2.17 0.06,-2.21 0.41,-2.15 0.76,-2.08 1.07,-1.90 1.39,-1.73 1.63,-1.46 1.87,-1.19 2.01,-0.86 2.15,-0.53 2.18,-0.17 2.21,0.18 2.12,0.52 2.03,0.87 1.84,1.18 1.65,1.48 1.37,1.70 1.09,1.93 0.75,2.05 0.41,2.18 0.05,2.19 -0.30,2.20 -0.64,2.09 -0.98,1.98 -1.27,1.77 -1.57,1.56 -1.57,1.57 -1.57,1.57 -1.73,1.35 -1.90,1.14 -2.01,0.90 -2.12,0.66 -2.16,0.39 -2.21,0.13 -2.20,-0.13 -2.18,-0.40 -2.10,-0.65 -2.02,-0.91 -1.88,-1.14 -1.74,-1.36 -1.55,-1.55 -1.36,-1.74 -1.14,-1.88 -0.91,-2.02 -0.65,-2.10 -0.40,-2.18 -0.13,-2.20 0.13,-2.21 0.39,-2.16 0.66,-2.12 0.90,-2.01 1.14,-1.90 1.35,-1.73 1.57,-1.57 1.57,-1.57 L 1.57,-1.57 Z"></path></g></svg>